<svg width="440" height="120" viewBox="-10 -12 420 120" fill="none" xmlns="http://www.w3.org/2000/svg">
  <defs>
    <!-- Premium green gradient for "sol" -->
    <linearGradient id="solGradient" x1="180" y1="20" x2="400" y2="95" gradientUnits="userSpaceOnUse">
      <stop offset="0%" stop-color="#00E85A"/>
      <stop offset="45%" stop-color="#00FF4C"/>
      <stop offset="100%" stop-color="#3DFFA0"/>
    </linearGradient>

    <!-- Ambient glow filter for green letters -->
    <filter id="greenGlow" x="-15%" y="-15%" width="130%" height="140%">
      <feGaussianBlur in="SourceGraphic" stdDeviation="4" result="blur"/>
      <feColorMatrix in="blur" type="matrix"
        values="0 0 0 0 0
                0 0 0 0 1
                0 0 0 0 0.3
                0 0 0 0.35 0" result="glow"/>
      <feMerge>
        <feMergeNode in="glow"/>
        <feMergeNode in="SourceGraphic"/>
      </feMerge>
    </filter>

    <!-- Subtle shadow for white letters -->
    <filter id="whiteShadow" x="-5%" y="-5%" width="110%" height="115%">
      <feDropShadow dx="0" dy="1.5" stdDeviation="1.5" flood-color="#ffffff" flood-opacity="0.15"/>
    </filter>


  </defs>

  <!-- ===== WHITE "den" LETTERS with subtle shadow ===== -->
  <g filter="url(#whiteShadow)">
    <!-- d -->
    <path d="M25.0638 93C18.4728 93 13.1277 90.7455 9.02837 86.2365C5.00946 81.7275 3 75.6198 3 67.9135V48.1149C3 40.3266 5.00946 34.1779 9.02837 29.6689C13.0473 25.1599 17.3286 23 24 23C29.4657 23 34.9102 24.4221 38.2057 27.4554C41.5012 30.4887 43.1489 34.5468 43.1489 39.6297L40.9787 37.0473H43.3901L43.1489 21.6757V2H54V91.7703H43.1489V78.8581H40.9787L43.1489 76.2757C43.1489 81.4405 41.5012 85.5396 38.2057 88.573C34.9102 91.5243 30.5296 93 25.0638 93ZM28.6809 83.4081C33.182 83.4081 36.7187 81.9734 39.2908 79.1041C41.8629 76.2347 43.1489 72.2586 43.1489 67.1757V48.7297C43.1489 43.6468 41.8629 39.6707 39.2908 36.8014C36.7187 33.932 33.182 32.4973 28.6809 32.4973C24.0993 32.4973 20.4823 33.891 17.8298 36.6784C15.1773 39.4658 13.8511 43.4829 13.8511 48.7297V67.1757C13.8511 72.4225 15.1773 76.4396 17.8298 79.227C20.4823 82.0144 24.0993 83.4081 28.6809 83.4081Z" fill="white"/>

    <!-- e (geometric construction) -->
    <rect x="46.3862" y="52.2061" width="49" height="9" fill="white"/>
    <path d="M21 84H95V93H25L21 84Z" fill="white"/>
    <rect x="24" y="23" width="71" height="9" fill="white"/>
    <path d="M43 0L54.5445 0.000175266V93H43V0Z" fill="white"/>
    <rect x="41" y="78" width="5" height="12" fill="white"/>
    <rect x="41" y="30" width="5" height="8" fill="white"/>

    <!-- n -->
    <path d="M94.5 93V23H106.593L106.019 36.4219H108.451L106.019 39.1178C106.019 33.5549 105.168 24.6621 106.593 23C107.593 23 119.204 23 125.092 23C132.091 23.3437 137.547 23.8412 141.728 28.2059C145.909 32.5707 148 38.5187 148 46.0501V93.5488H136.481V47.3338C136.481 42.2844 135.116 38.4331 132.385 35.7801C129.74 33.0414 126.114 31.6721 121.506 31.6721C116.728 31.6721 112.931 33.127 110.115 36.0368C107.384 38.9466 106.019 43.1402 106.019 48.6176V93H94.5Z" fill="white"/>
  </g>

  <!-- ===== GREEN "sol" LETTERS with gradient + glow ===== -->
  <g filter="url(#greenGlow)">
    <!-- S -->
    <path d="M207.49 94.4728C202.711 94.4728 198.53 93.7475 194.946 92.2968C191.447 90.7608 188.631 88.6275 186.498 85.8968C184.45 83.1661 183.212 79.9235 182.786 76.1688H194.306C194.818 78.6435 196.183 80.6061 198.402 82.0568C200.706 83.5075 203.735 84.2328 207.49 84.2328H212.866C217.388 84.2328 220.759 83.3368 222.978 81.5448C225.196 79.6675 226.306 77.1928 226.306 74.1208C226.306 71.1341 225.282 68.7875 223.234 67.0808C221.271 65.2888 218.327 64.0941 214.402 63.4968L204.93 61.9608C198.018 60.7661 192.855 58.6328 189.442 55.5608C186.114 52.4035 184.45 47.8381 184.45 41.8648C184.45 35.5501 186.455 30.6861 190.466 27.2728C194.476 23.7741 200.492 22.0248 208.514 22.0248H213.378C220.119 22.0248 225.538 23.6035 229.634 26.7608C233.73 29.9181 236.204 34.1848 237.058 39.5608H225.538C225.026 37.3421 223.746 35.5928 221.698 34.3128C219.65 32.9475 216.876 32.2648 213.378 32.2648H208.514C204.162 32.2648 200.962 33.0755 198.914 34.6968C196.951 36.3181 195.97 38.7501 195.97 41.9928C195.97 44.8941 196.823 47.0275 198.53 48.3928C200.236 49.7581 202.924 50.7395 206.594 51.3368L216.066 52.8728C223.66 54.0675 229.164 56.2861 232.578 59.5288C236.076 62.7715 237.826 67.4648 237.826 73.6088C237.826 80.0941 235.735 85.2141 231.554 88.9688C227.458 92.6381 221.228 94.4728 212.866 94.4728H207.49Z" fill="url(#solGradient)"/>

    <!-- o -->
    <path d="M286.416 94.4728C280.784 94.4728 275.92 93.4061 271.824 91.2728C267.728 89.1395 264.528 86.0675 262.224 82.0568C260.005 77.9608 258.896 73.1395 258.896 67.5928V48.9048C258.896 43.2728 260.005 38.4515 262.224 34.4408C264.528 30.4301 267.728 27.3581 271.824 25.2248C275.92 23.0915 280.784 22.0248 286.416 22.0248C292.048 22.0248 296.912 23.0915 301.008 25.2248C305.104 27.3581 308.261 30.4301 310.48 34.4408C312.784 38.4515 313.936 43.2301 313.936 48.7768V67.5928C313.936 73.1395 312.784 77.9608 310.48 82.0568C308.261 86.0675 305.104 89.1395 301.008 91.2728C296.912 93.4061 292.048 94.4728 286.416 94.4728ZM286.416 84.2328C291.45 84.2328 295.376 82.8248 298.192 80.0088C301.008 77.1928 302.416 73.0541 302.416 67.5928V48.9048C302.416 43.4435 301.008 39.3048 298.192 36.4888C295.376 33.6728 291.45 32.2648 286.416 32.2648C281.466 32.2648 277.541 33.6728 274.64 36.4888C271.824 39.3048 270.416 43.4435 270.416 48.9048V67.5928C270.416 73.0541 271.824 77.1928 274.64 80.0088C277.541 82.8248 281.466 84.2328 286.416 84.2328Z" fill="url(#solGradient)"/>

    <!-- l -->
    <path d="M372.766 93.4488C368.67 93.4488 365.086 92.6381 362.014 91.0168C358.942 89.3955 356.552 87.0915 354.846 84.1048C353.139 81.1181 352.286 77.6195 352.286 73.6088V10.5048H328.606V0.00878906H363.806V36.8088V73.6088C363.806 76.5101 364.616 78.8141 366.238 80.5208C367.859 82.1421 370.035 82.9528 372.766 82.9528H395.166V93.4488H372.766Z" fill="url(#solGradient)"/>
  </g>


</svg>
