<svg xmlns="http://www.w3.org/2000/svg" viewBox="0 0 700 360" width="700" height="360">
<style>
  text { font-family: -apple-system, BlinkMacSystemFont, 'Segoe UI', Roboto, Helvetica, Arial, sans-serif; fill: #444; }
  .title { font-size: 14px; font-weight: 600; fill: #222; }
  .axis-label { font-size: 11px; fill: #666; }
  .tick-label { font-size: 10px; fill: #888; }
  .legend-label { font-size: 11px; fill: #555; }
  .grid { stroke: #e8e8e8; stroke-width: 1; }
  .axis { stroke: #bbb; stroke-width: 1; }
  .data-label { font-size: 9px; fill: #555; }
</style>
<line x1="72" y1="288" x2="676" y2="288" class="grid"/>
<text x="64" y="292" text-anchor="end" class="tick-label">0</text>
<line x1="72" y1="239.2" x2="676" y2="239.2" class="grid"/>
<text x="64" y="243.2" text-anchor="end" class="tick-label">20</text>
<line x1="72" y1="190.39999999999998" x2="676" y2="190.39999999999998" class="grid"/>
<text x="64" y="194.39999999999998" text-anchor="end" class="tick-label">40</text>
<line x1="72" y1="141.6" x2="676" y2="141.6" class="grid"/>
<text x="64" y="145.6" text-anchor="end" class="tick-label">60</text>
<line x1="72" y1="92.79999999999998" x2="676" y2="92.79999999999998" class="grid"/>
<text x="64" y="96.79999999999998" text-anchor="end" class="tick-label">80</text>
<line x1="72" y1="44" x2="676" y2="44" class="grid"/>
<text x="64" y="48" text-anchor="end" class="tick-label">100</text>
<line x1="72" y1="44" x2="72" y2="288" class="axis"/>
<line x1="72" y1="288" x2="676" y2="288" class="axis"/>
<line x1="72" y1="288" x2="72" y2="292" class="axis"/>
<text x="72" y="306" text-anchor="middle" class="tick-label">256 B</text>
<line x1="185.49270212430102" y1="288" x2="185.49270212430102" y2="292" class="axis"/>
<text x="185.49270212430102" y="306" text-anchor="middle" class="tick-label">512 B</text>
<line x1="298.98540424860204" y1="288" x2="298.98540424860204" y2="292" class="axis"/>
<text x="298.98540424860204" y="306" text-anchor="middle" class="tick-label">1 KB</text>
<line x1="412.4781063729031" y1="288" x2="412.4781063729031" y2="292" class="axis"/>
<text x="412.4781063729031" y="306" text-anchor="middle" class="tick-label">2 KB</text>
<line x1="525.970808497204" y1="288" x2="525.970808497204" y2="292" class="axis"/>
<text x="525.970808497204" y="306" text-anchor="middle" class="tick-label">4 KB</text>
<line x1="639.463510621505" y1="288" x2="639.463510621505" y2="292" class="axis"/>
<text x="639.463510621505" y="306" text-anchor="middle" class="tick-label">8 KB</text>
<line x1="676" y1="288" x2="676" y2="292" class="axis"/>
<text x="676" y="306" text-anchor="middle" class="tick-label">10 KB</text>
<polyline points="72.0,280.6 185.5,273.3 299.0,259.3 412.5,233.1 526.0,187.1 639.5,114.2 676.0,84.9" fill="none" stroke="#4e79a7" stroke-width="2.5"/>
<circle cx="72" cy="280.558" r="4" fill="#4e79a7"/>
<circle cx="185.49270212430102" cy="273.3112" r="4" fill="#4e79a7"/>
<circle cx="298.98540424860204" cy="259.2812" r="4" fill="#4e79a7"/>
<circle cx="412.4781063729031" cy="233.0756" r="4" fill="#4e79a7"/>
<circle cx="525.970808497204" cy="187.05720000000002" r="4" fill="#4e79a7"/>
<circle cx="639.463510621505" cy="114.19879999999998" r="4" fill="#4e79a7"/>
<circle cx="676" cy="84.87" r="4" fill="#4e79a7"/>
<polyline points="72.0,283.8 185.5,279.6 299.0,271.3 412.5,255.5 526.0,226.3 639.5,175.7 676.0,153.7" fill="none" stroke="#59a14f" stroke-width="2.5"/>
<circle cx="72" cy="283.7544" r="4" fill="#59a14f"/>
<circle cx="185.49270212430102" cy="279.5576" r="4" fill="#59a14f"/>
<circle cx="298.98540424860204" cy="271.3348" r="4" fill="#59a14f"/>
<circle cx="412.4781063729031" cy="255.548" r="4" fill="#59a14f"/>
<circle cx="525.970808497204" cy="226.3168" r="4" fill="#59a14f"/>
<circle cx="639.463510621505" cy="175.7112" r="4" fill="#59a14f"/>
<circle cx="676" cy="153.678" r="4" fill="#59a14f"/>
<polyline points="72.0,285.6 185.5,285.6 299.0,285.6 412.5,285.6 526.0,285.6 639.5,285.6 676.0,285.6" fill="none" stroke="#e15759" stroke-width="2.5"/>
<circle cx="72" cy="285.6332" r="4" fill="#e15759"/>
<circle cx="185.49270212430102" cy="285.6088" r="4" fill="#e15759"/>
<circle cx="298.98540424860204" cy="285.5844" r="4" fill="#e15759"/>
<circle cx="412.4781063729031" cy="285.5844" r="4" fill="#e15759"/>
<circle cx="525.970808497204" cy="285.5844" r="4" fill="#e15759"/>
<circle cx="639.463510621505" cy="285.56" r="4" fill="#e15759"/>
<circle cx="676" cy="285.56" r="4" fill="#e15759"/>
<rect x="72" y="339" width="12" height="12" fill="#4e79a7" rx="2"/>
<text x="88" y="349" text-anchor="start" class="legend-label">repetitive</text>
<rect x="172" y="339" width="12" height="12" fill="#59a14f" rx="2"/>
<text x="188" y="349" text-anchor="start" class="legend-label">json-like</text>
<rect x="265" y="339" width="12" height="12" fill="#e15759" rx="2"/>
<text x="281" y="349" text-anchor="start" class="legend-label">random</text>
<text x="350" y="24" text-anchor="middle" class="title">Compression Ratio — LZ4</text>
<text x="14" y="166" text-anchor="middle" class="axis-label" transform="rotate(-90,14,166)">Compression ratio (×)</text>
<text x="374" y="332" text-anchor="middle" class="axis-label">Data size</text>
</svg>