<svg xmlns="http://www.w3.org/2000/svg" viewBox="0 0 720 380" width="720" height="380" style="font-family:-apple-system,BlinkMacSystemFont,'Segoe UI',Roboto,sans-serif;font-size:11px">
<line x1="70" y1="310" x2="700" y2="310" stroke="#e0e0e0" stroke-width="1"/>
<text x="62" y="314" text-anchor="end" font-size="10" font-weight="normal" fill="#666">0</text>
<line x1="70" y1="256" x2="700" y2="256" stroke="#e0e0e0" stroke-width="1"/>
<text x="62" y="260" text-anchor="end" font-size="10" font-weight="normal" fill="#666">100,000</text>
<line x1="70" y1="202" x2="700" y2="202" stroke="#e0e0e0" stroke-width="1"/>
<text x="62" y="206" text-anchor="end" font-size="10" font-weight="normal" fill="#666">200,000</text>
<line x1="70" y1="148" x2="700" y2="148" stroke="#e0e0e0" stroke-width="1"/>
<text x="62" y="152" text-anchor="end" font-size="10" font-weight="normal" fill="#666">300,000</text>
<line x1="70" y1="94" x2="700" y2="94" stroke="#e0e0e0" stroke-width="1"/>
<text x="62" y="98" text-anchor="end" font-size="10" font-weight="normal" fill="#666">400,000</text>
<line x1="70" y1="40" x2="700" y2="40" stroke="#e0e0e0" stroke-width="1"/>
<text x="62" y="44" text-anchor="end" font-size="10" font-weight="normal" fill="#666">500,000</text>
<line x1="70" y1="40" x2="70" y2="310" stroke="#999" stroke-width="1"/>
<line x1="70" y1="310" x2="700" y2="310" stroke="#999" stroke-width="1"/>
<text x="175" y="326" text-anchor="middle" font-size="10" font-weight="normal" fill="#666">IDENTITY</text>
<rect x="145" y="306.36904" width="29" height="3.63096" fill="#4e79a7" rx="2"/>
<rect x="175" y="253.63263999999998" width="29" height="56.367360000000005" fill="#e15759" rx="2"/>
<text x="385" y="326" text-anchor="middle" font-size="10" font-weight="normal" fill="#666">LZ4</text>
<rect x="355" y="294.70774" width="29" height="15.29226" fill="#4e79a7" rx="2"/>
<rect x="385" y="223.168" width="29" height="86.832" fill="#e15759" rx="2"/>
<text x="595" y="326" text-anchor="middle" font-size="10" font-weight="normal" fill="#666">RLE</text>
<rect x="565" y="93.25587999999999" width="29" height="216.74412" fill="#4e79a7" rx="2"/>
<rect x="595" y="251.35924" width="29" height="58.64076" fill="#e15759" rx="2"/>
<rect x="70" y="357" width="10" height="10" fill="#4e79a7" rx="1"/>
<text x="84" y="365" text-anchor="start" font-size="10" font-weight="normal" fill="#666">write+comp CU</text>
<rect x="182.5" y="357" width="10" height="10" fill="#e15759" rx="1"/>
<text x="196.5" y="365" text-anchor="start" font-size="10" font-weight="normal" fill="#666">decomp CU</text>
<text x="360" y="20" text-anchor="middle" font-size="13" font-weight="bold" fill="#333">Strategy Comparison — repetitive 10240 B</text>
<text x="16" y="175" text-anchor="middle" font-size="10" font-weight="normal" fill="#666" transform="rotate(-90,16,175)">Compute Units</text>
</svg>