<svg xmlns="http://www.w3.org/2000/svg" viewBox="0 0 700 360" width="700" height="360">
<style>
  text { font-family: -apple-system, BlinkMacSystemFont, 'Segoe UI', Roboto, Helvetica, Arial, sans-serif; fill: #444; }
  .title { font-size: 14px; font-weight: 600; fill: #222; }
  .axis-label { font-size: 11px; fill: #666; }
  .tick-label { font-size: 10px; fill: #888; }
  .legend-label { font-size: 11px; fill: #555; }
  .grid { stroke: #e8e8e8; stroke-width: 1; }
  .axis { stroke: #bbb; stroke-width: 1; }
  .data-label { font-size: 9px; fill: #555; }
</style>
<line x1="72" y1="288" x2="676" y2="288" class="grid"/>
<text x="64" y="292" text-anchor="end" class="tick-label">0</text>
<line x1="72" y1="239.2" x2="676" y2="239.2" class="grid"/>
<text x="64" y="243.2" text-anchor="end" class="tick-label">40K</text>
<line x1="72" y1="190.39999999999998" x2="676" y2="190.39999999999998" class="grid"/>
<text x="64" y="194.39999999999998" text-anchor="end" class="tick-label">80K</text>
<line x1="72" y1="141.6" x2="676" y2="141.6" class="grid"/>
<text x="64" y="145.6" text-anchor="end" class="tick-label">120K</text>
<line x1="72" y1="92.79999999999998" x2="676" y2="92.79999999999998" class="grid"/>
<text x="64" y="96.79999999999998" text-anchor="end" class="tick-label">160K</text>
<line x1="72" y1="44" x2="676" y2="44" class="grid"/>
<text x="64" y="48" text-anchor="end" class="tick-label">200K</text>
<line x1="72" y1="44" x2="72" y2="288" class="axis"/>
<line x1="72" y1="288" x2="676" y2="288" class="axis"/>
<line x1="72" y1="288" x2="72" y2="292" class="axis"/>
<text x="72" y="306" text-anchor="middle" class="tick-label">256 B</text>
<line x1="185.49270212430102" y1="288" x2="185.49270212430102" y2="292" class="axis"/>
<text x="185.49270212430102" y="306" text-anchor="middle" class="tick-label">512 B</text>
<line x1="298.98540424860204" y1="288" x2="298.98540424860204" y2="292" class="axis"/>
<text x="298.98540424860204" y="306" text-anchor="middle" class="tick-label">1 KB</text>
<line x1="412.4781063729031" y1="288" x2="412.4781063729031" y2="292" class="axis"/>
<text x="412.4781063729031" y="306" text-anchor="middle" class="tick-label">2 KB</text>
<line x1="525.970808497204" y1="288" x2="525.970808497204" y2="292" class="axis"/>
<text x="525.970808497204" y="306" text-anchor="middle" class="tick-label">4 KB</text>
<line x1="639.463510621505" y1="288" x2="639.463510621505" y2="292" class="axis"/>
<text x="639.463510621505" y="306" text-anchor="middle" class="tick-label">8 KB</text>
<line x1="676" y1="288" x2="676" y2="292" class="axis"/>
<text x="676" y="306" text-anchor="middle" class="tick-label">10 KB</text>
<polyline points="72.0,283.1 185.5,280.0 299.0,273.7 412.5,261.2 526.0,236.2 639.5,186.2 676.0,161.2" fill="none" stroke="#4e79a7" stroke-width="2.5" stroke-dasharray="6,3"/>
<circle cx="72" cy="283.09438" r="4" fill="#4e79a7"/>
<circle cx="185.49270212430102" cy="279.97118" r="4" fill="#4e79a7"/>
<circle cx="298.98540424860204" cy="273.7199" r="4" fill="#4e79a7"/>
<circle cx="412.4781063729031" cy="261.22222" r="4" fill="#4e79a7"/>
<circle cx="525.970808497204" cy="236.22198" r="4" fill="#4e79a7"/>
<circle cx="639.463510621505" cy="186.21174" r="4" fill="#4e79a7"/>
<circle cx="676" cy="161.1932" r="4" fill="#4e79a7"/>
<polyline points="72.0,278.0 185.5,277.4 299.0,276.1 412.5,273.5 526.0,268.5 639.5,258.5 676.0,253.5" fill="none" stroke="#4e79a7" stroke-width="2.5"/>
<circle cx="72" cy="277.95574" r="4" fill="#4e79a7"/>
<circle cx="185.49270212430102" cy="277.3738" r="4" fill="#4e79a7"/>
<circle cx="298.98540424860204" cy="276.08426" r="4" fill="#4e79a7"/>
<circle cx="412.4781063729031" cy="273.49786" r="4" fill="#4e79a7"/>
<circle cx="525.970808497204" cy="268.52758" r="4" fill="#4e79a7"/>
<circle cx="639.463510621505" cy="258.48088" r="4" fill="#4e79a7"/>
<circle cx="676" cy="253.45082" r="4" fill="#4e79a7"/>
<polyline points="72.0,283.1 185.5,280.0 299.0,273.7 412.5,261.2 526.0,236.2 639.5,186.2 676.0,161.2" fill="none" stroke="#59a14f" stroke-width="2.5" stroke-dasharray="6,3"/>
<circle cx="72" cy="283.09438" r="4" fill="#59a14f"/>
<circle cx="185.49270212430102" cy="279.97118" r="4" fill="#59a14f"/>
<circle cx="298.98540424860204" cy="273.7199" r="4" fill="#59a14f"/>
<circle cx="412.4781063729031" cy="261.22222" r="4" fill="#59a14f"/>
<circle cx="525.970808497204" cy="236.22198" r="4" fill="#59a14f"/>
<circle cx="639.463510621505" cy="186.21174" r="4" fill="#59a14f"/>
<circle cx="676" cy="161.1932" r="4" fill="#59a14f"/>
<polyline points="72.0,273.5 185.5,272.8 299.0,271.6 412.5,268.9 526.0,264.0 639.5,254.0 676.0,248.9" fill="none" stroke="#59a14f" stroke-width="2.5"/>
<circle cx="72" cy="273.47468" r="4" fill="#59a14f"/>
<circle cx="185.49270212430102" cy="272.80978" r="4" fill="#59a14f"/>
<circle cx="298.98540424860204" cy="271.55562" r="4" fill="#59a14f"/>
<circle cx="412.4781063729031" cy="268.93994" r="4" fill="#59a14f"/>
<circle cx="525.970808497204" cy="264.00382" r="4" fill="#59a14f"/>
<circle cx="639.463510621505" cy="253.97054" r="4" fill="#59a14f"/>
<circle cx="676" cy="248.9417" r="4" fill="#59a14f"/>
<polyline points="72.0,283.1 185.5,280.0 299.0,273.7 412.5,261.2 526.0,236.2 639.5,186.2 676.0,161.2" fill="none" stroke="#e15759" stroke-width="2.5" stroke-dasharray="6,3"/>
<circle cx="72" cy="283.09438" r="4" fill="#e15759"/>
<circle cx="185.49270212430102" cy="279.97118" r="4" fill="#e15759"/>
<circle cx="298.98540424860204" cy="273.71502" r="4" fill="#e15759"/>
<circle cx="412.4781063729031" cy="261.22222" r="4" fill="#e15759"/>
<circle cx="525.970808497204" cy="236.22198" r="4" fill="#e15759"/>
<circle cx="639.463510621505" cy="186.19832000000002" r="4" fill="#e15759"/>
<circle cx="676" cy="161.17978" r="4" fill="#e15759"/>
<polyline points="72.0,273.2 185.5,270.0 299.0,265.6 412.5,259.3 526.0,250.4" fill="none" stroke="#e15759" stroke-width="2.5"/>
<circle cx="72" cy="273.21238" r="4" fill="#e15759"/>
<circle cx="185.49270212430102" cy="269.99036" r="4" fill="#e15759"/>
<circle cx="298.98540424860204" cy="265.58616" r="4" fill="#e15759"/>
<circle cx="412.4781063729031" cy="259.26534" r="4" fill="#e15759"/>
<circle cx="525.970808497204" cy="250.42766" r="4" fill="#e15759"/>
<rect x="72" y="339" width="12" height="12" fill="#4e79a7" rx="2"/>
<text x="88" y="349" text-anchor="start" class="legend-label">repetitive raw O(N)</text>
<rect x="235" y="339" width="12" height="12" fill="#4e79a7" rx="2"/>
<text x="251" y="349" text-anchor="start" class="legend-label">repetitive compress+write</text>
<rect x="440" y="339" width="12" height="12" fill="#59a14f" rx="2"/>
<text x="456" y="349" text-anchor="start" class="legend-label">json-like raw O(N)</text>
<rect x="596" y="339" width="12" height="12" fill="#59a14f" rx="2"/>
<text x="612" y="349" text-anchor="start" class="legend-label">json-like compress+write</text>
<rect x="794" y="339" width="12" height="12" fill="#e15759" rx="2"/>
<text x="810" y="349" text-anchor="start" class="legend-label">random raw O(N)</text>
<rect x="929" y="339" width="12" height="12" fill="#e15759" rx="2"/>
<text x="945" y="349" text-anchor="start" class="legend-label">random compress+write</text>
<text x="350" y="24" text-anchor="middle" class="title">Raw O(N) CU vs Compress+Write CU</text>
<text x="14" y="166" text-anchor="middle" class="axis-label" transform="rotate(-90,14,166)">Compute Units</text>
<text x="374" y="332" text-anchor="middle" class="axis-label">Data size</text>
</svg>